<svg version="1.1" xmlns="http://www.w3.org/2000/svg" viewBox="0 0 603.1936936936935 121.21171171171176" width="603.1936936936935" height="121.21171171171176" filter="invert(93%) hue-rotate(180deg)">
  <!-- svg-source:excalidraw -->
  
  <defs>
    <style class="style-fonts">
      @font-face {
        font-family: "Virgil";
        src: url("https://excalidraw.com/Virgil.woff2");
      }
      @font-face {
        font-family: "Cascadia";
        src: url("https://excalidraw.com/Cascadia.woff2");
      }
    </style>
  </defs>
  <rect x="0" y="0" width="603.1936936936935" height="121.21171171171176" fill="#ffffff"/><g stroke-linecap="round" transform="translate(10 13.211711711711757) rotate(0 53 49)"><path d="M0 0 C35.25 0, 70.51 0, 106 0 M0 0 C41.67 0, 83.34 0, 106 0 M106 0 C106 25.16, 106 50.33, 106 98 M106 0 C106 30.46, 106 60.92, 106 98 M106 98 C81.65 98, 57.31 98, 0 98 M106 98 C63.76 98, 21.53 98, 0 98 M0 98 C0 68.7, 0 39.41, 0 0 M0 98 C0 73.87, 0 49.74, 0 0" stroke="#000000" stroke-width="2" fill="none"/></g><g stroke-linecap="round" transform="translate(122.51351351351352 13.130630630630662) rotate(0 53 49)"><path d="M0 0 C39.7 0, 79.4 0, 106 0 M0 0 C29.21 0, 58.42 0, 106 0 M106 0 C106 28.28, 106 56.55, 106 98 M106 0 C106 38.99, 106 77.98, 106 98 M106 98 C71 98, 36.01 98, 0 98 M106 98 C65.84 98, 25.68 98, 0 98 M0 98 C0 63.15, 0 28.31, 0 0 M0 98 C0 77.17, 0 56.34, 0 0" stroke="#000000" stroke-width="2" fill="none"/></g><g stroke-linecap="round" transform="translate(368.1936936936935 10) rotate(0 112.5 50.5)"><path d="M0 0 C68.91 0, 137.81 0, 225 0 M0 0 C76.12 0, 152.24 0, 225 0 M225 0 C225 38.61, 225 77.22, 225 101 M225 0 C225 37.86, 225 75.72, 225 101 M225 101 C149.87 101, 74.73 101, 0 101 M225 101 C138.56 101, 52.13 101, 0 101 M0 101 C0 68.2, 0 35.41, 0 0 M0 101 C0 75.81, 0 50.63, 0 0" stroke="#000000" stroke-width="2" fill="none"/></g><g stroke-linecap="round"><g transform="translate(255.25900900900925 56.59037162162164) rotate(0 42.83783783783784 -0.2702702702702737)"><path d="M0 0 C14.28 -0.09, 71.4 -0.45, 85.68 -0.54 M0 0 C14.28 -0.09, 71.4 -0.45, 85.68 -0.54" stroke="#000000" stroke-width="2" fill="none"/></g><g transform="translate(255.25900900900925 56.59037162162164) rotate(0 42.83783783783784 -0.2702702702702737)"><path d="M57.55 9.9 C63.33 7.75, 69.12 5.6, 85.68 -0.54 M57.55 9.9 C64.21 7.43, 70.87 4.95, 85.68 -0.54" stroke="#000000" stroke-width="2" fill="none"/></g><g transform="translate(255.25900900900925 56.59037162162164) rotate(0 42.83783783783784 -0.2702702702702737)"><path d="M57.42 -10.62 C63.23 -8.55, 69.04 -6.48, 85.68 -0.54 M57.42 -10.62 C64.11 -8.24, 70.8 -5.85, 85.68 -0.54" stroke="#000000" stroke-width="2" fill="none"/></g></g></svg>