<svg version="1.1" xmlns="http://www.w3.org/2000/svg" viewBox="0 0 1010.6644144144145 233.74324324324323" width="1010.6644144144145" height="233.74324324324323" filter="invert(93%) hue-rotate(180deg)">
  <!-- svg-source:excalidraw -->
  
  <defs>
    <style class="style-fonts">
      @font-face {
        font-family: "Virgil";
        src: url("https://excalidraw.com/Virgil.woff2");
      }
      @font-face {
        font-family: "Cascadia";
        src: url("https://excalidraw.com/Cascadia.woff2");
      }
    </style>
  </defs>
  <rect x="0" y="0" width="1010.6644144144145" height="233.74324324324323" fill="#ffffff"/><g stroke-linecap="round" transform="translate(10 16.351069819819827) rotate(0 53 49)"><path d="M-1.22 0.78 C24.13 -1.84, 45.49 -2.64, 104.41 1.2 M-0.74 0.24 C38.96 1.35, 77.09 1.82, 106.99 0.02 M105.7 -0.39 C104.75 26.22, 106.81 52.25, 106.95 99.67 M105.95 -0.59 C107.19 32.06, 107.33 64.72, 106.83 97.94 M104.85 99.09 C77.84 98.22, 47.09 97.95, 1.82 99.51 M106.63 97.47 C71.78 97.69, 35.42 97.62, 0.74 98.56 M1.2 97.11 C-0.65 67.92, 0.38 37.3, 0.68 1.8 M0.38 98.99 C-0.86 64.99, 0.37 34.17, -0.24 0.51" stroke="#000000" stroke-width="1" fill="none"/></g><g stroke-linecap="round" transform="translate(122.51351351351352 16.269988738738732) rotate(0 53 49)"><path d="M1.51 0.64 C25.43 -0.1, 52.53 -2.02, 107.93 -1.54 M0.56 0.11 C30.15 -0.13, 59.68 -1.24, 105.97 0.2 M107.8 0.57 C105.97 33.69, 106.88 70.36, 104.13 96.34 M106.51 0.39 C106.33 32.57, 107.13 65.07, 106.62 98.93 M106.25 96.3 C82.25 99.25, 59 97.65, -1.14 98.9 M106.29 97.76 C73.99 98.32, 43.34 98.88, 0.62 98.81 M0.47 98.96 C0.32 73.66, 0.37 49.8, -1.34 -1.57 M-0.36 97.56 C0.16 76.41, -0.28 54.2, -0.04 -0.08" stroke="#000000" stroke-width="1" fill="none"/></g><g stroke-linecap="round" transform="translate(368.1936936936935 13.13935810810807) rotate(0 112.5 50.5)"><path d="M0.53 1.59 C82.62 0.28, 164.68 -0.4, 225.69 1.53 M0.74 0.78 C77.29 1.14, 154.24 0.13, 225.84 -0.83 M226.28 -0.79 C225.72 37.19, 224.16 74.66, 225.26 99.65 M225.68 -0.97 C225.64 38.84, 226.01 77.24, 225.86 101.34 M224.05 100.01 C168.09 100.02, 111.61 101.1, -1.13 100.78 M225.61 100.17 C176.64 102.26, 127.24 101.62, 0.66 101.8 M1.82 102.82 C-0.92 67.87, 0.43 30.97, -1.08 -0.19 M-0.56 101.19 C-0.54 79.05, 0.7 59.55, -0.33 0.55" stroke="#000000" stroke-width="1" fill="none"/></g><g stroke-linecap="round"><g transform="translate(255.25900900900925 59.72972972972971) rotate(0 42.83783783783784 -0.2702702702702737)"><path d="M0 0 C14.28 -0.09, 71.4 -0.45, 85.68 -0.54 M0 0 C14.28 -0.09, 71.4 -0.45, 85.68 -0.54" stroke="#000000" stroke-width="2" fill="none"/></g><g transform="translate(255.25900900900925 59.72972972972971) rotate(0 42.83783783783784 -0.2702702702702737)"><path d="M57.55 9.9 C63.33 7.75, 69.12 5.6, 85.68 -0.54 M57.55 9.9 C64.21 7.43, 70.87 4.95, 85.68 -0.54" stroke="#000000" stroke-width="2" fill="none"/></g><g transform="translate(255.25900900900925 59.72972972972971) rotate(0 42.83783783783784 -0.2702702702702737)"><path d="M57.42 -10.62 C63.23 -8.55, 69.04 -6.48, 85.68 -0.54 M57.42 -10.62 C64.11 -8.24, 70.8 -5.85, 85.68 -0.54" stroke="#000000" stroke-width="2" fill="none"/></g></g><g stroke-linecap="round" transform="translate(369.2454954954957 122.74324324324323) rotate(0 112.5 50.5)"><path d="M-1.29 -1.25 C88.49 0.97, 172.8 -0.24, 223.64 0.01 M-0.28 0.78 C76.84 0.9, 152.96 1.78, 224.98 0.11 M224.39 0.07 C225.59 29.71, 224.69 60.62, 226.06 101.96 M225.01 -0.46 C225.91 25, 226.47 49.53, 224.96 101.31 M223.68 101.62 C150.1 102.01, 77.07 101.3, -0.73 101.36 M225.31 101.58 C138.58 101.12, 50.38 101.44, -0.83 101.49 M1.32 99.76 C1.39 76.71, 0.14 52.05, -0.24 0.27 M-0.92 101.24 C1.58 66.74, 0.38 32.34, -0.01 0.83" stroke="#000000" stroke-width="1" fill="none"/></g><g stroke-linecap="round" transform="translate(773.3671171171173 10) rotate(0 113.64864864864859 105.27027027027025)"><path d="M0 0 C50.46 0, 100.93 0, 227.3 0 M0 0 C66.22 0, 132.44 0, 227.3 0 M227.3 0 C227.3 73.7, 227.3 147.41, 227.3 210.54 M227.3 0 C227.3 54.41, 227.3 108.81, 227.3 210.54 M227.3 210.54 C163.68 210.54, 100.05 210.54, 0 210.54 M227.3 210.54 C151.68 210.54, 76.07 210.54, 0 210.54 M0 210.54 C0 145.29, 0 80.05, 0 0 M0 210.54 C0 149.29, 0 88.04, 0 0" stroke="#000000" stroke-width="2" fill="none"/></g><g stroke-linecap="round"><g transform="translate(643.5022522522524 115.13513513513509) rotate(0 42.83783783783781 -0.2702702702702737)"><path d="M0 0 C14.28 -0.09, 71.4 -0.45, 85.68 -0.54 M0 0 C14.28 -0.09, 71.4 -0.45, 85.68 -0.54" stroke="#000000" stroke-width="2" fill="none"/></g><g transform="translate(643.5022522522524 115.13513513513509) rotate(0 42.83783783783781 -0.2702702702702737)"><path d="M57.55 9.9 C63.46 7.7, 69.37 5.51, 85.68 -0.54 M57.55 9.9 C66.1 6.72, 74.65 3.55, 85.68 -0.54" stroke="#000000" stroke-width="2" fill="none"/></g><g transform="translate(643.5022522522524 115.13513513513509) rotate(0 42.83783783783781 -0.2702702702702737)"><path d="M57.42 -10.62 C63.36 -8.5, 69.3 -6.38, 85.68 -0.54 M57.42 -10.62 C66.01 -7.56, 74.6 -4.49, 85.68 -0.54" stroke="#000000" stroke-width="2" fill="none"/></g></g></svg>