<svg version="1.1" xmlns="http://www.w3.org/2000/svg" viewBox="0 0 655 260" width="655" height="260" filter="invert(93%) hue-rotate(180deg)">
  <!-- svg-source:excalidraw -->
  
  <defs>
    <style class="style-fonts">
      @font-face {
        font-family: "Virgil";
        src: url("https://excalidraw.com/Virgil.woff2");
      }
      @font-face {
        font-family: "Cascadia";
        src: url("https://excalidraw.com/Cascadia.woff2");
      }
    </style>
  </defs>
  <rect x="0" y="0" width="655" height="260" fill="#ffffff"/><g stroke-linecap="round" transform="translate(470.73353022392416 66.61405637759583) rotate(356.2193154196708 57.881983699025184 57.881983699025184)"><path d="M0 0 L115.76 0 L115.76 115.76 L0 115.76" stroke="none" stroke-width="0" fill="#ced4da"/><path d="M0 0 C39.85 0, 79.7 0, 115.76 0 M0 0 C32.15 0, 64.29 0, 115.76 0 M115.76 0 C115.76 28.97, 115.76 57.95, 115.76 115.76 M115.76 0 C115.76 25.23, 115.76 50.46, 115.76 115.76 M115.76 115.76 C84.53 115.76, 53.31 115.76, 0 115.76 M115.76 115.76 C75 115.76, 34.23 115.76, 0 115.76 M0 115.76 C0 89.52, 0 63.27, 0 0 M0 115.76 C0 86.31, 0 56.86, 0 0" stroke="#000000" stroke-width="2" fill="none"/></g><g stroke-linecap="round" transform="translate(466.520209939848 71.1543935187286) rotate(0 57.881983699025184 57.881983699025184)"><path d="M0 0 L115.76 0 L115.76 115.76 L0 115.76" stroke="none" stroke-width="0" fill="#ced4da"/><path d="M0 0 C25.23 0, 50.46 0, 115.76 0 M0 0 C31.23 0, 62.46 0, 115.76 0 M115.76 0 C115.76 40.76, 115.76 81.53, 115.76 115.76 M115.76 0 C115.76 26.25, 115.76 52.49, 115.76 115.76 M115.76 115.76 C86.31 115.76, 56.86 115.76, 0 115.76 M115.76 115.76 C88.58 115.76, 61.39 115.76, 0 115.76 M0 115.76 C0 73.82, 0 31.87, 0 0 M0 115.76 C0 76.27, 0 36.78, 0 0" stroke="#000000" stroke-width="2" fill="none"/></g><g stroke-linecap="round"><g transform="translate(446.1605366619601 52.43728910468141) rotate(0 78.83946333803988 77.7223049506588)"><path d="M0 0 C51.29 50.57, 102.59 101.13, 157.68 155.44 M0 0 C54.56 53.79, 109.12 107.58, 157.68 155.44" stroke="#c92a2a" stroke-width="4" fill="none"/></g></g><mask/><g stroke-linecap="round"><g transform="translate(600.966770341917 52.118100994001026) rotate(0 -75.48798817589645 76.28595845259737)"><path d="M0 0 C-44.25 44.72, -88.5 89.43, -150.98 152.57 M0 0 C-46.78 47.28, -93.57 94.56, -150.98 152.57" stroke="#c92a2a" stroke-width="4" fill="none"/></g></g><mask/><g stroke-linecap="round" transform="translate(72.1180163009748 88.16231919484056) rotate(0 57.881983699025184 57.881983699025184)"><path d="M0 0 L115.76 0 L115.76 115.76 L0 115.76" stroke="none" stroke-width="0" fill="#ced4da"/><path d="M0 0 C38.28 0, 76.56 0, 115.76 0 M0 0 C37.9 0, 75.8 0, 115.76 0 M115.76 0 C115.76 31.84, 115.76 63.68, 115.76 115.76 M115.76 0 C115.76 37.7, 115.76 75.4, 115.76 115.76 M115.76 115.76 C84.81 115.76, 53.85 115.76, 0 115.76 M115.76 115.76 C75.91 115.76, 36.06 115.76, 0 115.76 M0 115.76 C0 77.56, 0 39.37, 0 0 M0 115.76 C0 86.24, 0 56.73, 0 0" stroke="#000000" stroke-width="2" fill="none"/></g><g stroke-linecap="round"><g transform="translate(78.91619515186676 143.6424281625342) rotate(0 18.84054165950056 23.35165726811333)"><path d="M0 0 C12.19 15.11, 24.38 30.22, 37.68 46.7 M0 0 C8.65 10.72, 17.3 21.44, 37.68 46.7" stroke="#2b8a3e" stroke-width="4" fill="none"/></g></g><mask/><g stroke-linecap="round"><g transform="translate(118.72015640433278 190.87646218212709) rotate(0 33.96604693543759 -67.40137438750901)"><path d="M0 0 C13.75 -27.29, 27.5 -54.57, 67.93 -134.8 M0 0 C16.66 -33.06, 33.32 -66.12, 67.93 -134.8" stroke="#2b8a3e" stroke-width="4" fill="none"/></g></g><mask/><g stroke-linecap="round" transform="translate(10 10) rotate(0 120 120)"><path d="M32 0 M32 0 C90.93 0, 149.86 0, 208 0 M32 0 C79.13 0, 126.25 0, 208 0 M208 0 C229.33 0, 240 10.67, 240 32 M208 0 C229.33 0, 240 10.67, 240 32 M240 32 C240 78.19, 240 124.38, 240 208 M240 32 C240 93.93, 240 155.87, 240 208 M240 208 C240 229.33, 229.33 240, 208 240 M240 208 C240 229.33, 229.33 240, 208 240 M208 240 C162.37 240, 116.73 240, 32 240 M208 240 C165.8 240, 123.6 240, 32 240 M32 240 C10.67 240, 0 229.33, 0 208 M32 240 C10.67 240, 0 229.33, 0 208 M0 208 C0 166.17, 0 124.34, 0 32 M0 208 C0 138.9, 0 69.79, 0 32 M0 32 C0 10.67, 10.67 0, 32 0 M0 32 C0 10.67, 10.67 0, 32 0" stroke="#2b8a3e" stroke-width="4" fill="none"/></g><g stroke-linecap="round" transform="translate(405 10) rotate(0 120 120)"><path d="M32 0 M32 0 C74.1 0, 116.2 0, 208 0 M32 0 C83.47 0, 134.95 0, 208 0 M208 0 C229.33 0, 240 10.67, 240 32 M208 0 C229.33 0, 240 10.67, 240 32 M240 32 C240 86.19, 240 140.38, 240 208 M240 32 C240 97.86, 240 163.73, 240 208 M240 208 C240 229.33, 229.33 240, 208 240 M240 208 C240 229.33, 229.33 240, 208 240 M208 240 C157.76 240, 107.52 240, 32 240 M208 240 C138.14 240, 68.28 240, 32 240 M32 240 C10.67 240, 0 229.33, 0 208 M32 240 C10.67 240, 0 229.33, 0 208 M0 208 C0 143.65, 0 79.3, 0 32 M0 208 C0 139.83, 0 71.67, 0 32 M0 32 C0 10.67, 10.67 0, 32 0 M0 32 C0 10.67, 10.67 0, 32 0" stroke="#c92a2a" stroke-width="4" fill="none"/></g><g stroke-linecap="round"><g transform="translate(71.95130299180238 209.44156101374438) rotate(0 57.422097755358564 0.09506969827046419)"><path d="M0 0 C19.14 0.03, 95.7 0.16, 114.84 0.19 M0 0 C19.14 0.03, 95.7 0.16, 114.84 0.19" stroke="#000000" stroke-width="1" fill="none"/></g></g><mask/><g transform="translate(106.36653376570933 212.0317004102853) rotate(0 24.44921875 9.600000000000001)"><text x="0" y="0" font-family="Helvetica, Segoe UI Emoji" font-size="16px" fill="#000000" text-anchor="start" style="white-space: pre;" direction="ltr" dominant-baseline="text-before-edge">32 mm</text></g><g stroke-linecap="round"><g transform="translate(4.433338230646314 146.8193659749528) rotate(90.06938740213187 57.422097755358564 0.09506969827046419)"><path d="M0 0 C19.14 0.03, 95.7 0.16, 114.84 0.19 M0 0 C19.14 0.03, 95.7 0.16, 114.84 0.19" stroke="#000000" stroke-width="1" fill="none"/></g></g><mask/><g transform="translate(25.30940966385785 138.74213879106915) rotate(90.06938740213187 24.44921875 9.599999999999994)"><text x="0" y="0" font-family="Helvetica, Segoe UI Emoji" font-size="16px" fill="#000000" text-anchor="start" style="white-space: pre;" direction="ltr" dominant-baseline="text-before-edge">32 mm</text></g><g stroke-linecap="round"><g transform="translate(468.0663478317558 201.6632079887939) rotate(0 57.42209775535855 0.09506969827046419)"><path d="M0 0 C19.14 0.03, 95.7 0.16, 114.84 0.19 M0 0 C19.14 0.03, 95.7 0.16, 114.84 0.19" stroke="#000000" stroke-width="1" fill="none"/></g></g><mask/><g transform="translate(502.4815786056628 204.25334738533485) rotate(0 24.44921875 9.600000000000001)"><text x="0" y="0" font-family="Helvetica, Segoe UI Emoji" font-size="16px" fill="#000000" text-anchor="start" style="white-space: pre;" direction="ltr" dominant-baseline="text-before-edge">32 mm</text></g><g stroke-linecap="round"><g transform="translate(396.52287207206444 130.04350009415242) rotate(90.06938740213187 57.422097755358564 0.09506969827046419)"><path d="M0 0 C19.14 0.03, 95.7 0.16, 114.84 0.19 M0 0 C19.14 0.03, 95.7 0.16, 114.84 0.19" stroke="#000000" stroke-width="1" fill="none"/></g></g><mask/><g transform="translate(417.398943505276 121.96627291026874) rotate(90.06938740213187 24.44921875 9.599999999999994)"><text x="0" y="0" font-family="Helvetica, Segoe UI Emoji" font-size="16px" fill="#000000" text-anchor="start" style="white-space: pre;" direction="ltr" dominant-baseline="text-before-edge">32 mm</text></g></svg>