<svg version="1.1" xmlns="http://www.w3.org/2000/svg" viewBox="0 0 652.4707207207209 233.74324324324323" width="652.4707207207209" height="233.74324324324323" filter="invert(93%) hue-rotate(180deg)">
  <!-- svg-source:excalidraw -->
  
  <defs>
    <style class="style-fonts">
      @font-face {
        font-family: "Virgil";
        src: url("https://excalidraw.com/Virgil.woff2");
      }
      @font-face {
        font-family: "Cascadia";
        src: url("https://excalidraw.com/Cascadia.woff2");
      }
    </style>
  </defs>
  <rect x="0" y="0" width="652.4707207207209" height="233.74324324324323" fill="#ffffff"/><g stroke-linecap="round" transform="translate(10 13.13935810810807) rotate(0 112.5 50.5)"><path d="M0 0 C68.91 0, 137.81 0, 225 0 M0 0 C76.12 0, 152.24 0, 225 0 M225 0 C225 38.61, 225 77.22, 225 101 M225 0 C225 37.86, 225 75.72, 225 101 M225 101 C149.87 101, 74.73 101, 0 101 M225 101 C138.56 101, 52.13 101, 0 101 M0 101 C0 68.2, 0 35.41, 0 0 M0 101 C0 75.81, 0 50.63, 0 0" stroke="#000000" stroke-width="2" fill="none"/></g><g stroke-linecap="round" transform="translate(11.051801801802128 122.74324324324323) rotate(0 112.5 50.5)"><path d="M0 0 C47.61 0, 95.21 0, 225 0 M0 0 C76.87 0, 153.74 0, 225 0 M225 0 C225 30.71, 225 61.42, 225 101 M225 0 C225 26.37, 225 52.74, 225 101 M225 101 C151.74 101, 78.48 101, 0 101 M225 101 C146.55 101, 68.1 101, 0 101 M0 101 C0 62.02, 0 23.05, 0 0 M0 101 C0 65.26, 0 29.52, 0 0" stroke="#000000" stroke-width="2" fill="none"/></g><g stroke-linecap="round" transform="translate(415.1734234234238 10) rotate(0 113.64864864864859 105.27027027027025)"><path d="M0 0 C50.46 0, 100.93 0, 227.3 0 M0 0 C66.22 0, 132.44 0, 227.3 0 M227.3 0 C227.3 73.7, 227.3 147.41, 227.3 210.54 M227.3 0 C227.3 54.41, 227.3 108.81, 227.3 210.54 M227.3 210.54 C163.68 210.54, 100.05 210.54, 0 210.54 M227.3 210.54 C151.68 210.54, 76.07 210.54, 0 210.54 M0 210.54 C0 145.29, 0 80.05, 0 0 M0 210.54 C0 149.29, 0 88.04, 0 0" stroke="#000000" stroke-width="2" fill="none"/></g><g stroke-linecap="round"><g transform="translate(285.3085585585589 115.13513513513509) rotate(0 42.83783783783781 -0.2702702702702737)"><path d="M0 0 C14.28 -0.09, 71.4 -0.45, 85.68 -0.54 M0 0 C14.28 -0.09, 71.4 -0.45, 85.68 -0.54" stroke="#000000" stroke-width="2" fill="none"/></g><g transform="translate(285.3085585585589 115.13513513513509) rotate(0 42.83783783783781 -0.2702702702702737)"><path d="M57.55 9.9 C63.46 7.7, 69.37 5.51, 85.68 -0.54 M57.55 9.9 C66.1 6.72, 74.65 3.55, 85.68 -0.54" stroke="#000000" stroke-width="2" fill="none"/></g><g transform="translate(285.3085585585589 115.13513513513509) rotate(0 42.83783783783781 -0.2702702702702737)"><path d="M57.42 -10.62 C63.36 -8.5, 69.3 -6.38, 85.68 -0.54 M57.42 -10.62 C66.01 -7.56, 74.6 -4.49, 85.68 -0.54" stroke="#000000" stroke-width="2" fill="none"/></g></g></svg>
