<svg version="1.1" xmlns="http://www.w3.org/2000/svg" viewBox="0 0 461.5 330.5" width="461.5" height="330.5">
  <!-- svg-source:excalidraw -->
  
  <defs>
    <style class="style-fonts">
      @font-face {
        font-family: "Virgil";
        src: url("https://excalidraw.com/Virgil.woff2");
      }
      @font-face {
        font-family: "Cascadia";
        src: url("https://excalidraw.com/Cascadia.woff2");
      }
    </style>
  </defs>
  <rect x="0" y="0" width="461.5" height="330.5" fill="#000000"/><g stroke-opacity="0.4" fill-opacity="0.4" stroke-linecap="round" transform="translate(10 231.8671875) rotate(0 43 43)"><path d="M21.5 0 L69.54 0.34 L77.6 3.02 L82.98 8.4 L84.66 12.09 L86 21.5 L85.66 69.54 L82.98 77.6 L77.6 82.98 L73.91 84.66 L64.5 86 L16.46 85.66 L8.4 82.98 L3.02 77.6 L1.34 73.91 L0 64.5 L0 21.5 L1.34 12.09 L5.38 5.37 L8.4 3.02 L12.09 1.34 L21.5 0" stroke="none" stroke-width="0" fill="green"/><path d="M21.5 0 M21.5 0 C34.28 0, 47.07 0, 64.5 0 M21.5 0 C32.92 0, 44.34 0, 64.5 0 M64.5 0 C78.83 0, 86 7.17, 86 21.5 M64.5 0 C78.83 0, 86 7.17, 86 21.5 M86 21.5 C86 36.3, 86 51.11, 86 64.5 M86 21.5 C86 35.01, 86 48.52, 86 64.5 M86 64.5 C86 78.83, 78.83 86, 64.5 86 M86 64.5 C86 78.83, 78.83 86, 64.5 86 M64.5 86 C51.17 86, 37.85 86, 21.5 86 M64.5 86 C54.02 86, 43.55 86, 21.5 86 M21.5 86 C7.17 86, 0 78.83, 0 64.5 M21.5 86 C7.17 86, 0 78.83, 0 64.5 M0 64.5 C0 50.11, 0 35.73, 0 21.5 M0 64.5 C0 49.14, 0 33.77, 0 21.5 M0 21.5 C0 7.17, 7.17 0, 21.5 0 M0 21.5 C0 7.17, 7.17 0, 21.5 0" stroke="green" stroke-width="4" fill="none"/></g><g stroke-opacity="0.4" fill-opacity="0.4" stroke-linecap="round" transform="translate(274.5 234.5) rotate(0 88.5 43)"><path d="M21.5 0 L155.5 0 L164.91 1.34 L168.6 3.02 L173.98 8.4 L176.66 16.46 L177 64.5 L176.66 69.54 L173.98 77.6 L168.6 82.98 L164.91 84.66 L155.5 86 L21.5 86 L16.46 85.66 L8.4 82.98 L3.02 77.6 L0.34 69.54 L0.34 16.46 L1.34 12.09 L5.38 5.37 L12.09 1.34 L21.5 0" stroke="none" stroke-width="0" fill="#ff0000"/><path d="M21.5 0 M21.5 0 C50.2 0, 78.9 0, 155.5 0 M21.5 0 C72.1 0, 122.69 0, 155.5 0 M155.5 0 C169.83 0, 177 7.17, 177 21.5 M155.5 0 C169.83 0, 177 7.17, 177 21.5 M177 21.5 C177 30.78, 177 40.05, 177 64.5 M177 21.5 C177 30.31, 177 39.12, 177 64.5 M177 64.5 C177 78.83, 169.83 86, 155.5 86 M177 64.5 C177 78.83, 169.83 86, 155.5 86 M155.5 86 C128.18 86, 100.86 86, 21.5 86 M155.5 86 C107.6 86, 59.71 86, 21.5 86 M21.5 86 C7.17 86, 0 78.83, 0 64.5 M21.5 86 C7.17 86, 0 78.83, 0 64.5 M0 64.5 C0 47.55, 0 30.61, 0 21.5 M0 64.5 C0 53.16, 0 41.81, 0 21.5 M0 21.5 C0 7.17, 7.17 0, 21.5 0 M0 21.5 C0 7.17, 7.17 0, 21.5 0" stroke="#ff0000" stroke-width="4" fill="none"/></g><g stroke-opacity="0.4" fill-opacity="0.4" stroke-linecap="round" transform="translate(172 10) rotate(0 43 43)"><path d="M21.5 0 L69.54 0.34 L77.6 3.02 L82.98 8.4 L84.66 12.09 L86 21.5 L85.66 69.54 L82.98 77.6 L77.6 82.98 L73.91 84.66 L64.5 86 L16.46 85.66 L8.4 82.98 L3.02 77.6 L1.34 73.91 L0 64.5 L0 21.5 L1.34 12.09 L5.38 5.37 L8.4 3.02 L12.09 1.34 L21.5 0" stroke="none" stroke-width="0" fill="#0000ff"/><path d="M21.5 0 M21.5 0 C35.68 0, 49.86 0, 64.5 0 M21.5 0 C30.61 0, 39.73 0, 64.5 0 M64.5 0 C78.83 0, 86 7.17, 86 21.5 M64.5 0 C78.83 0, 86 7.17, 86 21.5 M86 21.5 C86 32.55, 86 43.59, 86 64.5 M86 21.5 C86 34.54, 86 47.58, 86 64.5 M86 64.5 C86 78.83, 78.83 86, 64.5 86 M86 64.5 C86 78.83, 78.83 86, 64.5 86 M64.5 86 C55.42 86, 46.34 86, 21.5 86 M64.5 86 C55.37 86, 46.25 86, 21.5 86 M21.5 86 C7.17 86, 0 78.83, 0 64.5 M21.5 86 C7.17 86, 0 78.83, 0 64.5 M0 64.5 C0 49.04, 0 33.57, 0 21.5 M0 64.5 C0 53.49, 0 42.49, 0 21.5 M0 21.5 C0 7.17, 7.17 0, 21.5 0 M0 21.5 C0 7.17, 7.17 0, 21.5 0" stroke="#0000ff" stroke-width="4" fill="none"/></g><g stroke-linecap="round"><g stroke-opacity="0.4" fill-opacity="0.4" transform="translate(264.5 102.7669452321279) rotate(0 44.675930712073395 55.800121133936045)"><path d="M0 0 C14.89 18.6, 74.46 93, 89.35 111.6 M0 0 C14.89 18.6, 74.46 93, 89.35 111.6" stroke="blue" stroke-width="4" fill="none"/></g><g stroke-opacity="0.4" fill-opacity="0.4" transform="translate(264.5 102.7669452321279) rotate(0 44.675930712073395 55.800121133936045)"><path d="M63.72 96.01 C69.63 99.6, 75.53 103.19, 89.35 111.6 M63.72 96.01 C72.54 101.37, 81.36 106.74, 89.35 111.6" stroke="blue" stroke-width="4" fill="none"/></g><g stroke-opacity="0.4" fill-opacity="0.4" transform="translate(264.5 102.7669452321279) rotate(0 44.675930712073395 55.800121133936045)"><path d="M79.74 83.18 C81.96 89.73, 84.17 96.27, 89.35 111.6 M79.74 83.18 C83.05 92.96, 86.36 102.74, 89.35 111.6" stroke="blue" stroke-width="4" fill="none"/></g></g><g stroke-linecap="round"><g stroke-opacity="0.4" fill-opacity="0.4" transform="translate(260 275.6407670280554) rotate(0 -75.5 -1.1261110554557803)"><path d="M0 0 C-25.17 -0.38, -125.83 -1.88, -151 -2.25 M0 0 C-25.17 -0.38, -125.83 -1.88, -151 -2.25" stroke="red" stroke-width="4" fill="none"/></g><g stroke-opacity="0.4" fill-opacity="0.4" transform="translate(260 275.6407670280554) rotate(0 -75.5 -1.1261110554557803)"><path d="M-122.66 -12.09 C-128.93 -9.92, -135.19 -7.74, -151 -2.25 M-122.66 -12.09 C-129.73 -9.64, -136.79 -7.18, -151 -2.25" stroke="red" stroke-width="4" fill="none"/></g><g stroke-opacity="0.4" fill-opacity="0.4" transform="translate(260 275.6407670280554) rotate(0 -75.5 -1.1261110554557803)"><path d="M-122.97 8.43 C-129.16 6.07, -135.36 3.7, -151 -2.25 M-122.97 8.43 C-129.96 5.76, -136.95 3.1, -151 -2.25" stroke="red" stroke-width="4" fill="none"/></g></g><g stroke-linecap="round"><g stroke-opacity="0.4" fill-opacity="0.4" transform="translate(72.75297715771868 212.3671875) rotate(0 45.87351142114066 -55.99222675390983)"><path d="M0 0 C15.29 -18.66, 76.46 -93.32, 91.75 -111.98 M0 0 C15.29 -18.66, 76.46 -93.32, 91.75 -111.98" stroke="green" stroke-width="4" fill="none"/></g><g stroke-opacity="0.4" fill-opacity="0.4" transform="translate(72.75297715771868 212.3671875) rotate(0 45.87351142114066 -55.99222675390983)"><path d="M81.82 -83.68 C83.97 -89.81, 86.12 -95.95, 91.75 -111.98 M81.82 -83.68 C85.68 -94.68, 89.54 -105.68, 91.75 -111.98" stroke="green" stroke-width="4" fill="none"/></g><g stroke-opacity="0.4" fill-opacity="0.4" transform="translate(72.75297715771868 212.3671875) rotate(0 45.87351142114066 -55.99222675390983)"><path d="M65.94 -96.68 C71.54 -100, 77.13 -103.31, 91.75 -111.98 M65.94 -96.68 C75.97 -102.63, 86 -108.58, 91.75 -111.98" stroke="green" stroke-width="4" fill="none"/></g></g></svg>